<svg id="logo" xmlns="http://www.w3.org/2000/svg" width="115" height="30" viewBox="0 0 115 30">
  <g id="Group_3" data-name="Group 3">
    <g id="Group_2" data-name="Group 2">
      <g id="Group_1" data-name="Group 1">
        <path id="Path_1" data-name="Path 1" d="M76.916,19.024h6.72v-8.78h-6.72a2.325,2.325,0,0,0-2.24,2.195v4.39A2.325,2.325,0,0,0,76.916,19.024Zm26.883,0h6.72v-8.78H103.8a2.325,2.325,0,0,0-2.24,2.195v4.39A2.325,2.325,0,0,0,103.8,19.024ZM88.117,6.951V22.317a1.314,1.314,0,0,1-1.12,1.1l-2.24.023a1.338,1.338,0,0,1-1.12-1.12v-.733l-1.017,1.2a2.214,2.214,0,0,1-1.6.634H76.916a6.8,6.8,0,0,1-6.721-6.586v-4.39a6.8,6.8,0,0,1,6.72-6.585H87a1.313,1.313,0,0,1,1.12,1.1Zm26.883,0V22.317a1.313,1.313,0,0,1-1.12,1.1l-2.24.023a1.338,1.338,0,0,1-1.12-1.12v-.733l-1.017,1.2a2.214,2.214,0,0,1-1.6.634H103.8a6.8,6.8,0,0,1-6.721-6.586v-4.39a6.8,6.8,0,0,1,6.72-6.585H113.88a1.313,1.313,0,0,1,1.12,1.1ZM40.325,10.244H33.6a2.325,2.325,0,0,0-2.24,2.195v4.39a2.325,2.325,0,0,0,2.24,2.195h6.72v-8.78ZM44.8,6.951V23.78A6.5,6.5,0,0,1,38.085,30H34.62a1.657,1.657,0,0,1-1.311-.638l-1.972-2.55c-.327-.424-.144-1.2.4-1.2h6.347a2.03,2.03,0,0,0,2.24-1.83v-.365H33.6a6.8,6.8,0,0,1-6.72-6.586v-4.39A6.8,6.8,0,0,1,33.6,5.854H37.71a2.481,2.481,0,0,1,1.437.731l1.177,1.1V6.95a1.314,1.314,0,0,1,1.12-1.1h2.24a1.312,1.312,0,0,1,1.12,1.1ZM4.481,16.83a2.325,2.325,0,0,0,2.24,2.195h6.72v-8.78H6.721a2.325,2.325,0,0,0-2.24,2.195ZM16.8,0a1.312,1.312,0,0,1,1.121,1.1v21.22a1.313,1.313,0,0,1-1.12,1.1h-2.24a1.312,1.312,0,0,1-1.12-1.1v-.732l-1.175,1.232a2.138,2.138,0,0,1-1.44.6h-4.1A6.8,6.8,0,0,1,0,16.829V12.473a6.832,6.832,0,0,1,6.72-6.62h6.722V1.1A1.312,1.312,0,0,1,14.562,0H16.8ZM63.1,14.634,69.336,6.9a.643.643,0,0,0-.513-1.048H65.257a.908.908,0,0,0-.7.323L58.247,13.9V1.1A1.313,1.313,0,0,0,57.127,0h-2.24a1.312,1.312,0,0,0-1.12,1.1v21.22a1.313,1.313,0,0,0,1.12,1.1h2.24a1.314,1.314,0,0,0,1.12-1.1V15.366l6.317,7.744a.907.907,0,0,0,.7.328h3.562a.643.643,0,0,0,.514-1.048L63.1,14.634ZM48.166,0a1.312,1.312,0,0,0-1.12,1.1V3.293a1.312,1.312,0,0,0,1.12,1.1h2.24a1.313,1.313,0,0,0,1.12-1.1V1.1A1.313,1.313,0,0,0,50.406,0Zm0,5.854a1.312,1.312,0,0,0-1.12,1.1V22.317c0,.484.8,1.12,1.295,1.12l2.065-.022a1.314,1.314,0,0,0,1.12-1.1V6.951a1.313,1.313,0,0,0-1.12-1.1h-2.24ZM21.282,0a1.313,1.313,0,0,0-1.12,1.1V3.293a1.313,1.313,0,0,0,1.12,1.1h2.24a1.312,1.312,0,0,0,1.12-1.1V1.1A1.312,1.312,0,0,0,23.522,0Zm0,5.854a1.313,1.313,0,0,0-1.12,1.1V22.317a1.314,1.314,0,0,0,1.12,1.1h2.24a1.313,1.313,0,0,0,1.12-1.1V6.951a1.312,1.312,0,0,0-1.12-1.1ZM94.838,1.1v21.22a1.314,1.314,0,0,1-1.12,1.1h-2.24a1.313,1.313,0,0,1-1.12-1.1V1.1A1.312,1.312,0,0,1,91.478,0h2.24A1.313,1.313,0,0,1,94.838,1.1Z" fill="#0099c9" fill-rule="evenodd"/>
      </g>
    </g>
  </g>
</svg>
